<svg xmlns="http://www.w3.org/2000/svg" viewBox="0 0 320 280">
  <path d="M55 148 Q55 42 160 42 Q265 42 265 148 Q240 132 220 148 Q200 132 180 148 Q160 132 140 148 Q120 132 100 148 Z" stroke="#1C1C1C" stroke-width="8" stroke-linejoin="round" stroke-linecap="round" fill="#fff"/>
  <path d="M100 148 Q95 185 88 215 Q82 240 90 252" stroke="#1C1C1C" stroke-width="8" stroke-linecap="round" stroke-linejoin="round" fill="none"/>
  <path d="M125 148 Q120 190 118 222" stroke="#1C1C1C" stroke-width="8" stroke-linecap="round" stroke-linejoin="round" fill="none"/>
  <path d="M152 148 Q150 194 152 228" stroke="#1C1C1C" stroke-width="8" stroke-linecap="round" stroke-linejoin="round" fill="none"/>
  <path d="M178 148 Q182 194 180 228" stroke="#1C1C1C" stroke-width="8" stroke-linecap="round" stroke-linejoin="round" fill="none"/>
  <path d="M205 148 Q212 185 215 217" stroke="#1C1C1C" stroke-width="8" stroke-linecap="round" stroke-linejoin="round" fill="none"/>
  <path d="M228 148 Q238 185 245 210 Q250 228 242 240" stroke="#1C1C1C" stroke-width="8" stroke-linecap="round" stroke-linejoin="round" fill="none"/>
</svg>
