<svg xmlns="http://www.w3.org/2000/svg" viewBox="0 0 320 280">
  <path d="M42 205 A118 118 0 0 0 278 205 L260 205 A100 100 0 0 1 60 205 Z" stroke="#1C1C1C" stroke-width="8" stroke-linejoin="round" stroke-linecap="round" fill="#fff"/>
  <path d="M60 205 A100 100 0 0 0 260 205 L242 205 A82 82 0 0 1 78 205 Z" stroke="#1C1C1C" stroke-width="8" stroke-linejoin="round" stroke-linecap="round" fill="#fff"/>
  <path d="M78 205 A82 82 0 0 0 242 205 L224 205 A64 64 0 0 1 96 205 Z" stroke="#1C1C1C" stroke-width="8" stroke-linejoin="round" stroke-linecap="round" fill="#fff"/>
  <path d="M96 205 A64 64 0 0 0 224 205 L206 205 A46 46 0 0 1 114 205 Z" stroke="#1C1C1C" stroke-width="8" stroke-linejoin="round" stroke-linecap="round" fill="#fff"/>
  <path d="M114 205 A46 46 0 0 0 206 205 L188 205 A28 28 0 0 1 132 205 Z" stroke="#1C1C1C" stroke-width="8" stroke-linejoin="round" stroke-linecap="round" fill="#fff"/>
  <ellipse cx="52" cy="218" rx="58" ry="40" stroke="#1C1C1C" stroke-width="8" stroke-linejoin="round" stroke-linecap="round" fill="#fff"/>
  <circle cx="26" cy="210" r="28" stroke="#1C1C1C" stroke-width="8" stroke-linejoin="round" stroke-linecap="round" fill="#fff"/>
  <circle cx="82" cy="202" r="24" stroke="#1C1C1C" stroke-width="8" stroke-linejoin="round" stroke-linecap="round" fill="#fff"/>
  <ellipse cx="268" cy="218" rx="58" ry="40" stroke="#1C1C1C" stroke-width="8" stroke-linejoin="round" stroke-linecap="round" fill="#fff"/>
  <circle cx="294" cy="210" r="28" stroke="#1C1C1C" stroke-width="8" stroke-linejoin="round" stroke-linecap="round" fill="#fff"/>
  <circle cx="238" cy="202" r="24" stroke="#1C1C1C" stroke-width="8" stroke-linejoin="round" stroke-linecap="round" fill="#fff"/>
</svg>
