<svg xmlns="http://www.w3.org/2000/svg" viewBox="0 0 320 280">
  <circle cx="255" cy="44" r="18" stroke="#1C1C1C" stroke-width="8" stroke-linejoin="round" stroke-linecap="round" fill="#fff"/>
  <circle cx="272" cy="28" r="13" stroke="#1C1C1C" stroke-width="8" stroke-linejoin="round" stroke-linecap="round" fill="#fff"/>
  <circle cx="284" cy="16" r="9" stroke="#1C1C1C" stroke-width="8" stroke-linejoin="round" stroke-linecap="round" fill="#fff"/>
  <rect x="242" y="62" width="24" height="32" rx="6" stroke="#1C1C1C" stroke-width="8" stroke-linejoin="round" stroke-linecap="round" fill="#fff"/>
  <rect x="200" y="90" width="88" height="84" rx="10" stroke="#1C1C1C" stroke-width="8" stroke-linejoin="round" stroke-linecap="round" fill="#fff"/>
  <rect x="218" y="106" width="52" height="44" rx="8" stroke="#1C1C1C" stroke-width="8" stroke-linejoin="round" stroke-linecap="round" fill="#fff"/>
  <rect x="32" y="138" width="256" height="86" rx="14" stroke="#1C1C1C" stroke-width="8" stroke-linejoin="round" stroke-linecap="round" fill="#fff"/>
  <rect x="146" y="150" width="44" height="66" rx="8" stroke="#1C1C1C" stroke-width="8" stroke-linejoin="round" stroke-linecap="round" fill="#fff"/>
  <rect x="54" y="154" width="50" height="38" rx="8" stroke="#1C1C1C" stroke-width="8" stroke-linejoin="round" stroke-linecap="round" fill="#fff"/>
  <circle cx="32" cy="182" r="14" stroke="#1C1C1C" stroke-width="8" stroke-linejoin="round" stroke-linecap="round" fill="#fff"/>
  <circle cx="72" cy="238" r="36" stroke="#1C1C1C" stroke-width="8" stroke-linejoin="round" stroke-linecap="round" fill="#fff"/>
  <circle cx="72" cy="238" r="16" stroke="#1C1C1C" stroke-width="8" stroke-linejoin="round" stroke-linecap="round" fill="#fff"/>
  <circle cx="168" cy="238" r="36" stroke="#1C1C1C" stroke-width="8" stroke-linejoin="round" stroke-linecap="round" fill="#fff"/>
  <circle cx="168" cy="238" r="16" stroke="#1C1C1C" stroke-width="8" stroke-linejoin="round" stroke-linecap="round" fill="#fff"/>
  <circle cx="254" cy="238" r="32" stroke="#1C1C1C" stroke-width="8" stroke-linejoin="round" stroke-linecap="round" fill="#fff"/>
  <circle cx="254" cy="238" r="14" stroke="#1C1C1C" stroke-width="8" stroke-linejoin="round" stroke-linecap="round" fill="#fff"/>
</svg>
