<svg xmlns="http://www.w3.org/2000/svg" viewBox="0 0 320 280">
  <path d="M262 108 L296 68 Q300 86 286 106 Z" stroke="#1C1C1C" stroke-width="8" stroke-linejoin="round" stroke-linecap="round" fill="#fff"/>
  <path d="M262 172 L296 212 Q300 194 286 174 Z" stroke="#1C1C1C" stroke-width="8" stroke-linejoin="round" stroke-linecap="round" fill="#fff"/>
  <path d="M38 140 Q38 68 130 52 Q210 38 262 140 Q210 242 130 228 Q38 212 38 140 Z" stroke="#1C1C1C" stroke-width="8" stroke-linejoin="round" stroke-linecap="round" fill="#fff"/>
  <circle cx="80" cy="120" r="18" stroke="#1C1C1C" stroke-width="8" stroke-linejoin="round" stroke-linecap="round" fill="#fff"/>
  <circle cx="80" cy="120" r="8" fill="#1C1C1C" stroke="none"/>
  <path d="M50 154 Q65 170 85 164" stroke="#1C1C1C" stroke-width="8" stroke-linecap="round" stroke-linejoin="round" fill="none"/>
  <path d="M105 52 Q95 25 88 12" stroke="#1C1C1C" stroke-width="8" stroke-linecap="round" stroke-linejoin="round" fill="none"/>
  <path d="M116 48 Q108 20 108 5" stroke="#1C1C1C" stroke-width="8" stroke-linecap="round" stroke-linejoin="round" fill="none"/>
  <path d="M126 46 Q122 18 128 5" stroke="#1C1C1C" stroke-width="8" stroke-linecap="round" stroke-linejoin="round" fill="none"/>
</svg>
