<svg xmlns="http://www.w3.org/2000/svg" viewBox="0 0 320 280">
  <rect x="72" y="222" width="30" height="54" rx="10" stroke="#1C1C1C" stroke-width="8" stroke-linejoin="round" stroke-linecap="round" fill="#fff"/>
  <rect x="115" y="226" width="30" height="52" rx="10" stroke="#1C1C1C" stroke-width="8" stroke-linejoin="round" stroke-linecap="round" fill="#fff"/>
  <rect x="175" y="226" width="30" height="52" rx="10" stroke="#1C1C1C" stroke-width="8" stroke-linejoin="round" stroke-linecap="round" fill="#fff"/>
  <rect x="218" y="222" width="30" height="54" rx="10" stroke="#1C1C1C" stroke-width="8" stroke-linejoin="round" stroke-linecap="round" fill="#fff"/>
  <ellipse cx="155" cy="180" rx="108" ry="75" stroke="#1C1C1C" stroke-width="8" stroke-linejoin="round" stroke-linecap="round" fill="#fff"/>
  <rect x="208" y="88" width="52" height="108" rx="16" stroke="#1C1C1C" stroke-width="8" stroke-linejoin="round" stroke-linecap="round" fill="#fff"/>
  <ellipse cx="255" cy="72" rx="44" ry="34" stroke="#1C1C1C" stroke-width="8" stroke-linejoin="round" stroke-linecap="round" fill="#fff"/>
  <path d="M210 88 Q218 66 226 88 Q234 62 242 88 Q250 66 258 88" stroke="#1C1C1C" stroke-width="8" stroke-linecap="round" stroke-linejoin="round" fill="none"/>
  <ellipse cx="242" cy="42" rx="12" ry="18" stroke="#1C1C1C" stroke-width="8" stroke-linejoin="round" stroke-linecap="round" fill="#fff"/>
  <circle cx="268" cy="64" r="10" stroke="#1C1C1C" stroke-width="8" stroke-linejoin="round" stroke-linecap="round" fill="#fff"/>
  <circle cx="268" cy="64" r="5" fill="#1C1C1C" stroke="none"/>
  <path d="M280 80 Q292 88 288 98" stroke="#1C1C1C" stroke-width="8" stroke-linecap="round" stroke-linejoin="round" fill="none"/>
  <path d="M96 124 L89 173 Q102 177 104 166 L112 121 Z" stroke="#1C1C1C" stroke-width="8" stroke-linejoin="round" stroke-linecap="round" fill="#fff"/>
  <path d="M130 113 L124 172 Q137 176 140 165 L148 113 Z" stroke="#1C1C1C" stroke-width="8" stroke-linejoin="round" stroke-linecap="round" fill="#fff"/>
  <path d="M163 110 L159 170 Q172 172 175 161 L179 110 Z" stroke="#1C1C1C" stroke-width="8" stroke-linejoin="round" stroke-linecap="round" fill="#fff"/>
  <path d="M197 113 L195 170 Q208 170 211 159 L215 115 Z" stroke="#1C1C1C" stroke-width="8" stroke-linejoin="round" stroke-linecap="round" fill="#fff"/>
  <path d="M48 170 Q28 177 22 198" stroke="#1C1C1C" stroke-width="8" stroke-linecap="round" stroke-linejoin="round" fill="none"/>
</svg>
